<?xml version="1.0" standalone="no"?><!DOCTYPE svg PUBLIC "-//W3C//DTD SVG 1.1//EN" "http://www.w3.org/Graphics/SVG/1.1/DTD/svg11.dtd"><svg t="1555923951721" class="icon" style="" viewBox="0 0 1024 1024" version="1.1" xmlns="http://www.w3.org/2000/svg" p-id="9253" xmlns:xlink="http://www.w3.org/1999/xlink" width="200" height="200"><defs><style type="text/css"></style></defs><path d="M640 469.333333h170.666667v384H170.666667V213.333333h469.333333v256zM256 384h42.666667V298.666667H256v85.333333z m128 0h42.666667V298.666667H384v85.333333z m-128 128h42.666667v-85.333333H256v85.333333z m128 0h42.666667v-85.333333H384v85.333333z m-128 128h42.666667v-85.333333H256v85.333333z m128 0h42.666667v-85.333333H384v85.333333z m-128 128h42.666667v-85.333333H256v85.333333z m128 0h42.666667v-85.333333H384v85.333333z m128-384h42.666667V298.666667h-42.666667v85.333333z m0 128h42.666667v-85.333333h-42.666667v85.333333z m0 128h42.666667v-85.333333h-42.666667v85.333333z m0 128h42.666667v-85.333333h-42.666667v85.333333z m128-170.666667h85.333333v-42.666666h-85.333333v42.666666z m0 85.333334h85.333333v-42.666667h-85.333333v42.666667z m0 85.333333h85.333333v-42.666667h-85.333333v42.666667z" p-id="9254"></path></svg>