<?xml version="1.0" standalone="no"?><!DOCTYPE svg PUBLIC "-//W3C//DTD SVG 1.1//EN" "http://www.w3.org/Graphics/SVG/1.1/DTD/svg11.dtd"><svg t="1555924033796" class="icon" style="" viewBox="0 0 1024 1024" version="1.1" xmlns="http://www.w3.org/2000/svg" p-id="9377" xmlns:xlink="http://www.w3.org/1999/xlink" width="200" height="200"><defs><style type="text/css"></style></defs><path d="M341.333333 170.666667v85.333333H256V170.666667h85.333333z m384 0v85.333333h-85.333333V170.666667h85.333333z m128 85.333333v554.666667H128V256h725.333333z m-85.333333 85.333333H213.333333v384h554.666667V341.333333z m-384 85.333334v85.333333H256v-85.333333h128z m170.666667 0v85.333333h-128v-85.333333h128z m170.666666 0v85.333333h-128v-85.333333h128z m-341.333333 128v85.333333H256v-85.333333h128z m170.666667 0v85.333333h-128v-85.333333h128z m170.666666 0v85.333333h-128v-85.333333h128z" p-id="9378"></path></svg>